<svg width="880" height="460" viewBox="0 0 880 460" fill="none" xmlns="http://www.w3.org/2000/svg">
  <defs>
    <style>
      @import url('https://fonts.googleapis.com/css2?family=Geist+Mono:wght@400;500;600;700;800&amp;family=Geist:wght@400;500;600;700;800&amp;display=swap');

      .bg-card { fill: #0b0c0e; stroke: #22252c; stroke-width: 1.5; rx: 14px; }
      .header-bar { fill: #12141a; stroke: #22252c; stroke-width: 1; }
      .text-title { font-family: 'Geist', -apple-system, BlinkMacSystemFont, 'Segoe UI', Roboto, sans-serif; font-size: 38px; font-weight: 800; fill: #ffffff; letter-spacing: -0.04em; }
      .text-tagline { font-family: 'Geist', -apple-system, BlinkMacSystemFont, 'Segoe UI', Roboto, sans-serif; font-size: 15px; font-weight: 500; fill: #9ca3af; }
      .text-mono-eyebrow { font-family: 'Geist Mono', monospace; font-size: 11px; font-weight: 700; fill: #6b7280; letter-spacing: 0.08em; text-transform: uppercase; }
      .text-stat-num { font-family: 'Geist Mono', monospace; font-size: 28px; font-weight: 800; fill: #ffffff; letter-spacing: -0.02em; }
      .text-stat-label { font-family: 'Geist Mono', monospace; font-size: 10.5px; font-weight: 700; fill: #9ca3af; text-transform: uppercase; letter-spacing: 0.06em; }
      .text-stat-sub { font-family: 'Geist', sans-serif; font-size: 10px; font-weight: 400; fill: #6b7280; }
      .text-footer { font-family: 'Geist Mono', monospace; font-size: 11px; font-weight: 600; fill: #9ca3af; }
      .text-domain { font-family: 'Geist Mono', monospace; font-size: 12px; font-weight: 800; fill: #ffffff; }
      .dot-green { fill: #10b981; }
      .divider { stroke: #22252c; stroke-width: 1; }
      .btn-bg { fill: #161920; stroke: #2d323c; stroke-width: 1; rx: 6px; }
      .btn-text { font-family: 'Geist Mono', monospace; font-size: 11px; font-weight: 700; fill: #e5e7eb; letter-spacing: 0.02em; }
    </style>

    <pattern id="card-dots" x="0" y="0" width="22" height="22" patternUnits="userSpaceOnUse">
      <circle cx="2" cy="2" r="0.9" fill="#1e222b" />
    </pattern>
  </defs>

  <!-- Card Background -->
  <rect x="2" y="2" width="876" height="456" rx="14" class="bg-card" />
  <rect x="2" y="2" width="876" height="456" rx="14" fill="url(#card-dots)" opacity="0.9" />

  <!-- Window Header Bar -->
  <path d="M 2 16 Q 2 2 16 2 L 864 2 Q 878 2 878 16 L 878 44 L 2 44 Z" class="header-bar" />
  
  <!-- Window Controls & File Path -->
  <circle cx="24" cy="23" r="5.5" fill="#ef4444" />
  <circle cx="42" cy="23" r="5.5" fill="#eab308" />
  <circle cx="60" cy="23" r="5.5" fill="#22c55e" />
  
  <text x="84" y="27" font-family="'Geist Mono', monospace" font-size="11.5" font-weight="600" fill="#9ca3af">
    flxhrdyn / <tspan fill="#ffffff">README.md</tspan>
  </text>

  <!-- Status Indicator in Top-Right -->
  <g transform="translate(710, 13)">
    <rect width="146" height="22" rx="11" fill="#181b22" stroke="#2d323c" stroke-width="1" />
    <circle cx="12" cy="11" r="3.5" class="dot-green" />
    <text x="22" y="15" font-family="'Geist Mono', monospace" font-size="9.5" font-weight="700" fill="#d1d5db" letter-spacing="0.05em">
      ACTIVE // JAKARTA, ID
    </text>
  </g>

  <!-- Brandmark Logo [::] flxhrdyn -->
  <g transform="translate(40, 76)">
    <path d="M4 3H1V17H4" stroke="#ffffff" stroke-width="1.8" stroke-linecap="square" />
    <path d="M16 3H19V17H16" stroke="#ffffff" stroke-width="1.8" stroke-linecap="square" />
    <rect x="6" y="5" width="2" height="2" fill="#ffffff" />
    <rect x="9.5" y="5" width="2" height="2" fill="#ffffff" opacity="0.35" />
    <rect x="13" y="5" width="2" height="2" fill="#ffffff" />
    <rect x="6" y="9" width="2" height="2" fill="#ffffff" opacity="0.35" />
    <rect x="9.5" y="9" width="2" height="2" fill="#ffffff" />
    <rect x="13" y="9" width="2" height="2" fill="#ffffff" opacity="0.35" />
    <rect x="6" y="13" width="2" height="2" fill="#ffffff" />
    <rect x="9.5" y="13" width="2" height="2" fill="#ffffff" opacity="0.35" />
    <rect x="13" y="13" width="2" height="2" fill="#ffffff" />
    <text x="26" y="15" font-family="'Geist', sans-serif" font-size="18" font-weight="800" fill="#ffffff" letter-spacing="-0.03em">flxhrdyn</text>
  </g>

  <!-- Eyebrow -->
  <g transform="translate(40, 120)">
    <circle cx="4" cy="-4" r="3" class="dot-green" />
    <text x="14" y="0" class="text-mono-eyebrow">AI ENGINEER &amp; DATA SCIENTIST</text>
  </g>

  <!-- Main Hero Title -->
  <text x="40" y="162" class="text-title">Felix Windriyareksa Hardyan</text>
  
  <!-- Subtitle / Tagline -->
  <text x="40" y="194" class="text-tagline">Building production-grade AI systems, from Data Science to GenAI.</text>

  <!-- Buttons Row -->
  <g transform="translate(40, 218)">
    <!-- Portfolio Button -->
    <rect width="140" height="28" class="btn-bg" />
    <text x="70" y="18" text-anchor="middle" class="btn-text">🌐 Live Portfolio</text>

    <!-- LinkedIn Button -->
    <rect x="150" width="115" height="28" class="btn-bg" />
    <text x="207" y="18" text-anchor="middle" class="btn-text">💼 LinkedIn</text>

    <!-- Email Button -->
    <rect x="275" width="95" height="28" class="btn-bg" />
    <text x="322" y="18" text-anchor="middle" class="btn-text">✉️ Email</text>

    <!-- Resume Button -->
    <rect x="380" width="105" height="28" class="btn-bg" />
    <text x="432" y="18" text-anchor="middle" class="btn-text">📄 Resume</text>
  </g>

  <!-- Divider Line Above Telemetry Strip -->
  <line x1="40" y1="272" x2="840" y2="272" class="divider" />

  <!-- Telemetry Metrics Grid (3 Columns) -->
  <!-- Col 1 -->
  <g transform="translate(40, 296)">
    <text x="0" y="26" class="text-stat-num">2+ Yrs</text>
    <text x="0" y="48" class="text-stat-label">AI/ML EXPERIENCE</text>
    <text x="0" y="66" class="text-stat-sub">Industry &amp; research lab track record</text>
  </g>

  <!-- Vertical Divider 1 -->
  <line x1="275" y1="290" x2="275" y2="370" class="divider" />

  <!-- Col 2 -->
  <g transform="translate(305, 296)">
    <text x="0" y="26" class="text-stat-num">10+</text>
    <text x="0" y="48" class="text-stat-label">AI PROJECTS BUILT</text>
    <text x="0" y="66" class="text-stat-sub">GenAI, RAG, Vision &amp; Predictive ML</text>
  </g>

  <!-- Vertical Divider 2 -->
  <line x1="535" y1="290" x2="535" y2="370" class="divider" />

  <!-- Col 3 -->
  <g transform="translate(565, 296)">
    <text x="0" y="26" class="text-stat-num">BNSP</text>
    <text x="0" y="48" class="text-stat-label">CERTIFIED DATA SCIENTIST</text>
    <text x="0" y="66" class="text-stat-sub">National professional certification</text>
  </g>

  <!-- Bottom Bar Divider -->
  <line x1="40" y1="394" x2="840" y2="394" class="divider" />

  <!-- Bottom Bar: Pillars & Domain -->
  <g transform="translate(40, 426)">
    <text x="0" y="0" class="text-footer">
      Computer Vision &nbsp;&bull;&nbsp; Applied NLP &nbsp;&bull;&nbsp; RAG Systems &nbsp;&bull;&nbsp; Agentic AI
    </text>
  </g>

  <g transform="translate(840, 426)">
    <text x="0" y="0" text-anchor="end" class="text-domain">flxhrdyn.vercel.app</text>
  </g>
</svg>
